<?xml version="1.0" standalone="no"?>
<!DOCTYPE svg PUBLIC "-//W3C//DTD SVG 20010904//EN"
 "http://www.w3.org/TR/2001/REC-SVG-20010904/DTD/svg10.dtd">
<svg version="1.0" xmlns="http://www.w3.org/2000/svg"
 width="418.000000pt" height="418.000000pt" viewBox="0 0 418.000000 418.000000"
 preserveAspectRatio="xMidYMid meet">
<metadata>
Created by potrace 1.11, written by Peter Selinger 2001-2013
</metadata>
<g transform="translate(0.000000,418.000000) scale(0.100000,-0.100000)"
fill="#000000" stroke="none">
<path d="M2031 3939 c-189 -133 -338 -318 -405 -506 -63 -177 -54 -367 26
-543 57 -127 188 -282 316 -375 l69 -50 0 -63 c0 -61 -1 -64 -31 -79 -80 -40
-127 -114 -129 -204 l-1 -58 -111 -63 c-60 -35 -141 -82 -179 -105 l-70 -41
-53 30 c-48 27 -60 30 -121 26 -119 -7 -199 -82 -209 -197 -9 -100 44 -196
125 -230 l32 -13 0 -222 0 -222 -40 -18 c-40 -17 -86 -68 -108 -119 -29 -67
-6 -176 50 -238 71 -79 218 -90 298 -23 l30 26 67 -38 c308 -174 292 -163 288
-202 -8 -84 48 -183 127 -223 54 -27 143 -27 194 0 88 47 127 106 128 196 l1
62 177 102 178 103 27 -22 c72 -57 158 -65 241 -24 91 45 140 140 121 237 -15
81 -54 133 -129 172 l-28 14 0 220 c1 202 2 221 18 226 10 3 36 19 58 34 52
39 85 106 84 176 0 51 1 55 35 75 l35 20 76 -24 c246 -77 445 -1 547 209 37
77 65 183 65 249 0 42 0 42 -60 69 -201 89 -403 70 -538 -51 -65 -59 -142
-223 -142 -303 0 -23 -8 -34 -40 -54 l-40 -25 -40 26 c-69 46 -176 45 -243 0
l-35 -24 -184 105 -183 104 1 47 c3 85 -42 164 -117 207 l-44 24 0 61 0 61 55
41 c191 144 327 331 377 518 25 97 23 263 -6 364 -27 96 -83 208 -151 297 -60
80 -193 208 -277 266 l-61 43 -71 -51z m142 -1760 c29 -31 34 -66 16 -102 -52
-102 -203 -53 -183 60 7 35 22 53 59 69 40 17 74 8 108 -27z m-185 -256 l49
-27 0 -217 0 -217 -39 -18 c-21 -9 -38 -21 -38 -25 0 -4 -87 42 -192 102
l-193 110 1 56 2 55 178 103 c99 57 180 104 181 104 2 1 25 -11 51 -26z m426
-60 c83 -49 164 -95 180 -104 27 -14 30 -20 30 -73 l1 -57 -110 -63 c-60 -35
-143 -82 -183 -106 l-73 -42 -47 22 -47 22 0 219 c-1 144 3 219 10 220 5 0 26
11 45 24 19 13 37 24 39 24 2 1 72 -38 155 -86z m-1000 -95 c47 -62 48 -107 6
-150 -28 -27 -36 -30 -76 -25 -33 3 -50 11 -62 28 -58 81 2 179 96 158 19 -4
35 -9 36 -11z m1487 1 c11 -5 26 -24 35 -41 13 -26 14 -38 5 -69 -22 -72 -108
-94 -162 -40 -81 81 20 205 122 150z m-1356 -267 c26 -16 75 -44 150 -86 11
-6 57 -33 102 -59 l81 -48 -1 -54 c-2 -64 13 -51 -236 -193 -25 -14 -65 -37
-90 -52 l-46 -27 -45 21 -45 21 1 219 1 219 36 18 c20 11 39 23 42 29 9 14 15
13 50 -8z m1175 -2 c14 -11 30 -20 37 -20 24 0 28 -30 28 -240 l0 -215 -42
-21 -42 -21 -183 105 c-101 58 -184 106 -186 107 -2 1 -4 27 -6 58 l-3 55 41
23 c22 13 50 29 61 36 11 7 29 17 40 22 11 5 65 37 120 70 55 33 102 60 105
60 3 0 16 -8 30 -19z m-549 -186 c24 -22 35 -79 20 -110 -14 -33 -67 -63 -99
-58 -67 13 -99 63 -83 135 2 11 36 46 51 52 25 11 90 0 111 -19z m-195 -259
c20 -14 42 -25 49 -25 8 0 12 -55 12 -208 l1 -207 -50 -28 -49 -27 -179 102
-180 103 0 42 c0 23 -2 47 -5 55 -3 8 18 26 57 48 34 19 83 47 108 62 25 15
68 39 95 54 28 14 59 33 70 40 26 18 28 18 71 -11z m475 -77 l178 -101 -4 -55
c-3 -30 -6 -56 -7 -57 -6 -5 -254 -148 -306 -177 l-52 -29 -28 19 c-15 11 -36
22 -47 26 -20 6 -20 14 -20 212 l0 206 37 19 c20 10 40 23 43 29 3 5 11 10 17
10 6 0 91 -46 189 -102z m-1056 -81 c28 -9 55 -58 55 -97 0 -22 -9 -41 -29
-61 -62 -61 -164 -20 -164 66 0 71 67 116 138 92z m1532 -34 c45 -69 2 -152
-80 -153 -78 0 -124 92 -76 154 40 50 123 50 156 -1z m-767 -393 c51 -36 49
-133 -3 -158 -43 -20 -59 -22 -92 -8 -73 31 -83 135 -16 171 37 20 78 18 111
-5z"/>
</g>
</svg>
